<svg width="46" height="45" viewBox="0 0 46 45" fill="none" xmlns="http://www.w3.org/2000/svg">
<rect x="0.5" width="45" height="45" rx="10" fill="#CC4B4B"/>
<path d="M30.3642 16.1363C30.3642 15.584 29.9164 15.1363 29.3642 15.1363L20.3641 15.1363C19.8119 15.1363 19.3641 15.5841 19.3641 16.1363C19.3641 16.6886 19.8119 17.1363 20.3642 17.1363L28.3642 17.1363L28.3642 25.1363C28.3642 25.6886 28.8119 26.1363 29.3642 26.1363C29.9164 26.1363 30.3642 25.6886 30.3642 25.1363L30.3642 16.1363ZM16.6362 28.8643L17.3433 29.5714L30.0713 16.8434L29.3642 16.1363L28.657 15.4292L15.9291 28.1572L16.6362 28.8643Z" fill="white"/>
</svg>
