<svg width="187" height="44" viewBox="0 0 187 44" fill="none" xmlns="http://www.w3.org/2000/svg">
<path d="M11.97 38.94C9.534 38.94 7.42 38.408 5.628 37.344C3.836 36.252 2.45 34.796 1.47 32.976C0.49 31.156 0 29.14 0 26.928C0 24.632 0.504 22.588 1.512 20.796C2.548 19.004 3.934 17.59 5.67 16.554C7.406 15.518 9.366 15 11.55 15C13.37 15 14.98 15.294 16.38 15.882C17.78 16.442 18.956 17.24 19.908 18.276C20.888 19.312 21.63 20.516 22.134 21.888C22.638 23.232 22.89 24.702 22.89 26.298C22.89 26.746 22.862 27.194 22.806 27.642C22.778 28.062 22.708 28.426 22.596 28.734H5.418V24.114H19.026L16.044 26.298C16.324 25.094 16.31 24.03 16.002 23.106C15.694 22.154 15.148 21.412 14.364 20.88C13.608 20.32 12.67 20.04 11.55 20.04C10.458 20.04 9.52 20.306 8.736 20.838C7.952 21.37 7.364 22.154 6.972 23.19C6.58 24.226 6.426 25.486 6.51 26.97C6.398 28.258 6.552 29.392 6.972 30.372C7.392 31.352 8.036 32.122 8.904 32.682C9.772 33.214 10.822 33.48 12.054 33.48C13.174 33.48 14.126 33.256 14.91 32.808C15.722 32.36 16.352 31.744 16.8 30.96L21.84 33.354C21.392 34.474 20.678 35.454 19.698 36.294C18.746 37.134 17.612 37.792 16.296 38.268C14.98 38.716 13.538 38.94 11.97 38.94Z" fill="white"/>
<path d="M33.694 39.436C31.846 39.436 30.264 39.044 28.948 38.26C27.66 37.448 26.68 36.328 26.008 34.9C25.336 33.472 25 31.806 25 29.902V16H31.3V29.398C31.3 30.266 31.468 31.036 31.804 31.708C32.168 32.352 32.672 32.856 33.316 33.22C33.96 33.584 34.688 33.766 35.5 33.766C36.34 33.766 37.068 33.584 37.684 33.22C38.328 32.856 38.818 32.352 39.154 31.708C39.518 31.036 39.7 30.266 39.7 29.398V16H46V38.932H40.12V34.396L40.456 35.404C39.924 36.776 39.056 37.798 37.852 38.47C36.676 39.114 35.29 39.436 33.694 39.436Z" fill="white"/>
<g filter="url(#filter0_d_18_131)">
<path d="M68.6323 15.625C68.5073 14.7045 68.28 13.8807 67.9505 13.1534C67.6209 12.4148 67.1777 11.7898 66.6209 11.2784C66.0641 10.7557 65.388 10.358 64.5925 10.0852C63.7971 9.8125 62.8709 9.67614 61.8141 9.67614C59.9391 9.67614 58.1607 10.1477 56.4789 11.0909C54.7971 12.0341 53.3596 13.4205 52.1664 15.25C50.9732 17.0682 50.1607 19.2841 49.7289 21.8977C49.2971 24.5341 49.3198 26.767 49.7971 28.5966C50.2743 30.4261 51.1493 31.8182 52.4221 32.7727C53.7062 33.7159 55.3198 34.1875 57.263 34.1875C59.0471 34.1875 60.6664 33.8466 62.1209 33.1648C63.5755 32.483 64.78 31.517 65.7346 30.267C66.7005 29.0057 67.3141 27.5284 67.5755 25.8352L68.9732 26.0568H59.4789L60.3312 21.1136H74.4959L73.78 25.3068C73.2914 28.3068 72.2289 30.8977 70.5925 33.0795C68.9675 35.25 66.9391 36.9261 64.5073 38.108C62.0868 39.2784 59.4334 39.8636 56.5471 39.8636C53.3425 39.8636 50.6437 39.142 48.4505 37.6989C46.2687 36.2443 44.7232 34.1818 43.8141 31.5114C42.905 28.8295 42.7573 25.6477 43.3709 21.9659C43.8255 19.1477 44.6323 16.6307 45.7914 14.4148C46.9618 12.1989 48.3937 10.3182 50.0868 8.77273C51.7914 7.21591 53.6834 6.03409 55.763 5.22727C57.8425 4.40909 60.0243 4 62.3084 4C64.2289 4 65.9789 4.28409 67.5584 4.85227C69.138 5.40909 70.4902 6.20455 71.6152 7.23864C72.7516 8.27273 73.6209 9.5 74.2232 10.9205C74.8255 12.3409 75.1096 13.9091 75.0755 15.625H68.6323Z" fill="#2B7EFC"/>
</g>
<mask id="path-4-outside-1_18_131" maskUnits="userSpaceOnUse" x="42" y="1" width="144" height="40" fill="black">
<rect fill="white" x="42" y="1" width="144" height="40"/>
<path d="M68.9135 15.2386C68.7885 14.3182 68.5612 13.4943 68.2317 12.767C67.9021 12.0284 67.459 11.4034 66.9021 10.892C66.3453 10.3693 65.6692 9.97159 64.8737 9.69886C64.0783 9.42614 63.1521 9.28977 62.0953 9.28977C60.2203 9.28977 58.4419 9.76136 56.7601 10.7045C55.0783 11.6477 53.6408 13.0341 52.4476 14.8636C51.2544 16.6818 50.4419 18.8977 50.0101 21.5114C49.5783 24.1477 49.601 26.3807 50.0783 28.2102C50.5555 30.0398 51.4305 31.4318 52.7033 32.3864C53.9874 33.3295 55.601 33.8011 57.5442 33.8011C59.3283 33.8011 60.9476 33.4602 62.4021 32.7784C63.8567 32.0966 65.0612 31.1307 66.0158 29.8807C66.9817 28.6193 67.5953 27.142 67.8567 25.4489L69.2544 25.6705H59.7601L60.6124 20.7273H74.7771L74.0612 24.9205C73.5726 27.9205 72.5101 30.5114 70.8737 32.6932C69.2487 34.8636 67.2203 36.5398 64.7885 37.7216C62.368 38.892 59.7146 39.4773 56.8283 39.4773C53.6237 39.4773 50.9249 38.7557 48.7317 37.3125C46.5499 35.858 45.0044 33.7955 44.0953 31.125C43.1862 28.4432 43.0385 25.2614 43.6521 21.5795C44.1067 18.7614 44.9135 16.2443 46.0726 14.0284C47.243 11.8125 48.6749 9.93182 50.368 8.38636C52.0726 6.82954 53.9646 5.64773 56.0442 4.84091C58.1237 4.02273 60.3055 3.61364 62.5896 3.61364C64.5101 3.61364 66.2601 3.89773 67.8396 4.46591C69.4192 5.02273 70.7715 5.81818 71.8965 6.85227C73.0328 7.88636 73.9021 9.11364 74.5044 10.5341C75.1067 11.9545 75.3908 13.5227 75.3567 15.2386H68.9135ZM84.0742 39.5284C82.4151 39.5284 80.972 39.233 79.7447 38.642C78.5174 38.0398 77.614 37.1534 77.0345 35.983C76.4663 34.8125 76.3242 33.3693 76.6083 31.6534C76.8583 30.1761 77.3356 28.9545 78.0401 27.9886C78.7561 27.0227 79.6311 26.25 80.6651 25.6705C81.7106 25.0795 82.847 24.6364 84.0742 24.3409C85.3129 24.0455 86.5742 23.8295 87.8583 23.6932C89.4265 23.5341 90.6936 23.3864 91.6595 23.25C92.6367 23.1136 93.3697 22.9091 93.8583 22.6364C94.347 22.3523 94.6424 21.9205 94.7447 21.3409V21.2386C94.9492 19.9545 94.7447 18.9602 94.1311 18.2557C93.5174 17.5511 92.4947 17.1989 91.0629 17.1989C89.5629 17.1989 88.3015 17.5284 87.2788 18.1875C86.2561 18.8466 85.5117 19.625 85.0458 20.5227L79.4549 19.7045C80.1595 18.1136 81.1254 16.7841 82.3526 15.7159C83.5799 14.6364 84.9947 13.8295 86.597 13.2955C88.2106 12.75 89.9322 12.4773 91.7617 12.4773C93.0117 12.4773 94.2333 12.625 95.4265 12.9205C96.6311 13.2159 97.6936 13.7045 98.614 14.3864C99.5458 15.0568 100.228 15.9716 100.659 17.1307C101.103 18.2898 101.177 19.7386 100.881 21.4773L97.9663 39H92.0345L92.6481 35.4034H92.4436C91.9549 36.1307 91.3186 36.8125 90.5345 37.4489C89.7504 38.0739 88.8186 38.5795 87.739 38.9659C86.6595 39.3409 85.4379 39.5284 84.0742 39.5284ZM86.4095 34.9943C87.6481 34.9943 88.7617 34.75 89.7504 34.2614C90.739 33.7614 91.5515 33.1023 92.1879 32.2841C92.8242 31.4659 93.222 30.5739 93.3811 29.608L93.8924 26.5227C93.6651 26.6818 93.3129 26.8295 92.8356 26.9659C92.3583 27.1023 91.8242 27.2216 91.2333 27.3239C90.6538 27.4261 90.0799 27.517 89.5117 27.5966C88.9436 27.6761 88.4549 27.7443 88.0458 27.8011C87.1026 27.9261 86.239 28.1307 85.4549 28.4148C84.6822 28.6989 84.0401 29.0966 83.5288 29.608C83.0288 30.108 82.7163 30.7557 82.5913 31.5511C82.4095 32.6761 82.6765 33.5341 83.3924 34.125C84.1083 34.7045 85.114 34.9943 86.4095 34.9943ZM127.092 19.7386L121.415 20.3523C121.359 19.7727 121.182 19.233 120.887 18.733C120.592 18.233 120.148 17.8352 119.557 17.5398C118.978 17.233 118.228 17.0795 117.307 17.0795C115.967 17.0795 114.79 17.3807 113.779 17.983C112.768 18.5852 112.194 19.358 112.057 20.3011C111.932 21.0057 112.103 21.5795 112.569 22.0227C113.035 22.4659 113.898 22.8409 115.16 23.1477L119.489 24.1023C121.876 24.6364 123.592 25.5 124.637 26.6932C125.694 27.8864 126.063 29.4489 125.745 31.3807C125.472 32.9943 124.768 34.4148 123.631 35.642C122.495 36.858 121.04 37.8068 119.268 38.4886C117.506 39.1705 115.552 39.5114 113.404 39.5114C110.143 39.5114 107.631 38.8352 105.87 37.483C104.12 36.1193 103.251 34.2443 103.262 31.858L109.33 31.2784C109.398 32.4602 109.813 33.3523 110.574 33.9545C111.336 34.5455 112.393 34.8466 113.745 34.858C115.268 34.8693 116.552 34.5511 117.597 33.9034C118.654 33.2443 119.251 32.4432 119.387 31.5C119.501 30.7955 119.324 30.2216 118.859 29.7784C118.404 29.3352 117.592 28.983 116.421 28.7216L112.126 27.7841C109.694 27.25 107.961 26.3466 106.927 25.0739C105.904 23.7898 105.557 22.1705 105.887 20.2159C106.16 18.625 106.824 17.2557 107.881 16.108C108.949 14.9489 110.319 14.0568 111.989 13.4318C113.66 12.7955 115.529 12.4773 117.597 12.4773C120.711 12.4773 123.057 13.1307 124.637 14.4375C126.217 15.7443 127.035 17.5114 127.092 19.7386ZM146.032 12.8182L145.231 17.5909H130.197L130.981 12.8182H146.032ZM135.72 6.54545H141.89L137.799 31.125C137.674 31.9545 137.697 32.5909 137.867 33.0341C138.049 33.4659 138.339 33.7614 138.737 33.9205C139.146 34.0795 139.606 34.1591 140.117 34.1591C140.492 34.1591 140.845 34.1307 141.174 34.0739C141.504 34.0057 141.765 33.9545 141.958 33.9205L142.231 38.7443C141.856 38.858 141.35 38.983 140.714 39.1193C140.089 39.2557 139.339 39.3352 138.464 39.358C136.896 39.392 135.532 39.1534 134.373 38.642C133.225 38.1193 132.384 37.3182 131.85 36.2386C131.328 35.1477 131.208 33.7841 131.492 32.1477L135.72 6.54545ZM157.11 39.5114C154.485 39.5114 152.315 38.9659 150.599 37.875C148.883 36.7727 147.679 35.2159 146.985 33.2045C146.304 31.1818 146.19 28.8011 146.645 26.0625C147.088 23.3693 147.991 21.0057 149.355 18.9716C150.718 16.9261 152.423 15.3352 154.468 14.1989C156.525 13.0511 158.798 12.4773 161.287 12.4773C162.9 12.4773 164.383 12.7386 165.735 13.2614C167.088 13.7727 168.23 14.5682 169.162 15.6477C170.093 16.7273 170.735 18.1023 171.088 19.7727C171.44 21.4318 171.423 23.4091 171.037 25.7045L170.747 27.5966H149.27L149.934 23.4375H165.48C165.684 22.2557 165.616 21.2045 165.275 20.2841C164.934 19.3523 164.366 18.6193 163.571 18.0852C162.775 17.5511 161.781 17.2841 160.588 17.2841C159.372 17.2841 158.235 17.5966 157.179 18.2216C156.133 18.8352 155.252 19.6307 154.537 20.608C153.821 21.5852 153.366 22.6136 153.173 23.6932L152.474 27.6818C152.224 29.3182 152.281 30.6534 152.645 31.6875C153.008 32.7216 153.645 33.483 154.554 33.9716C155.463 34.4602 156.61 34.7045 157.997 34.7045C158.906 34.7045 159.747 34.5795 160.52 34.3295C161.292 34.0795 161.98 33.7045 162.582 33.2045C163.196 32.6932 163.707 32.0682 164.116 31.3295L169.758 31.9773C169.133 33.5 168.218 34.8295 167.014 35.9659C165.809 37.0909 164.366 37.9659 162.684 38.5909C161.014 39.2045 159.156 39.5114 157.11 39.5114ZM173.128 39L177.491 12.8182H183.662L179.298 39H173.128ZM181.48 9.06818C180.491 9.06818 179.673 8.73864 179.025 8.07954C178.378 7.42045 178.094 6.63068 178.173 5.71023C178.253 4.78977 178.667 4 179.417 3.34091C180.179 2.68182 181.048 2.35227 182.025 2.35227C183.014 2.35227 183.827 2.68182 184.463 3.34091C185.111 4 185.395 4.78977 185.315 5.71023C185.247 6.63068 184.832 7.42045 184.071 8.07954C183.321 8.73864 182.457 9.06818 181.48 9.06818Z"/>
</mask>
<path d="M68.9135 15.2386C68.7885 14.3182 68.5612 13.4943 68.2317 12.767C67.9021 12.0284 67.459 11.4034 66.9021 10.892C66.3453 10.3693 65.6692 9.97159 64.8737 9.69886C64.0783 9.42614 63.1521 9.28977 62.0953 9.28977C60.2203 9.28977 58.4419 9.76136 56.7601 10.7045C55.0783 11.6477 53.6408 13.0341 52.4476 14.8636C51.2544 16.6818 50.4419 18.8977 50.0101 21.5114C49.5783 24.1477 49.601 26.3807 50.0783 28.2102C50.5555 30.0398 51.4305 31.4318 52.7033 32.3864C53.9874 33.3295 55.601 33.8011 57.5442 33.8011C59.3283 33.8011 60.9476 33.4602 62.4021 32.7784C63.8567 32.0966 65.0612 31.1307 66.0158 29.8807C66.9817 28.6193 67.5953 27.142 67.8567 25.4489L69.2544 25.6705H59.7601L60.6124 20.7273H74.7771L74.0612 24.9205C73.5726 27.9205 72.5101 30.5114 70.8737 32.6932C69.2487 34.8636 67.2203 36.5398 64.7885 37.7216C62.368 38.892 59.7146 39.4773 56.8283 39.4773C53.6237 39.4773 50.9249 38.7557 48.7317 37.3125C46.5499 35.858 45.0044 33.7955 44.0953 31.125C43.1862 28.4432 43.0385 25.2614 43.6521 21.5795C44.1067 18.7614 44.9135 16.2443 46.0726 14.0284C47.243 11.8125 48.6749 9.93182 50.368 8.38636C52.0726 6.82954 53.9646 5.64773 56.0442 4.84091C58.1237 4.02273 60.3055 3.61364 62.5896 3.61364C64.5101 3.61364 66.2601 3.89773 67.8396 4.46591C69.4192 5.02273 70.7715 5.81818 71.8965 6.85227C73.0328 7.88636 73.9021 9.11364 74.5044 10.5341C75.1067 11.9545 75.3908 13.5227 75.3567 15.2386H68.9135ZM84.0742 39.5284C82.4151 39.5284 80.972 39.233 79.7447 38.642C78.5174 38.0398 77.614 37.1534 77.0345 35.983C76.4663 34.8125 76.3242 33.3693 76.6083 31.6534C76.8583 30.1761 77.3356 28.9545 78.0401 27.9886C78.7561 27.0227 79.6311 26.25 80.6651 25.6705C81.7106 25.0795 82.847 24.6364 84.0742 24.3409C85.3129 24.0455 86.5742 23.8295 87.8583 23.6932C89.4265 23.5341 90.6936 23.3864 91.6595 23.25C92.6367 23.1136 93.3697 22.9091 93.8583 22.6364C94.347 22.3523 94.6424 21.9205 94.7447 21.3409V21.2386C94.9492 19.9545 94.7447 18.9602 94.1311 18.2557C93.5174 17.5511 92.4947 17.1989 91.0629 17.1989C89.5629 17.1989 88.3015 17.5284 87.2788 18.1875C86.2561 18.8466 85.5117 19.625 85.0458 20.5227L79.4549 19.7045C80.1595 18.1136 81.1254 16.7841 82.3526 15.7159C83.5799 14.6364 84.9947 13.8295 86.597 13.2955C88.2106 12.75 89.9322 12.4773 91.7617 12.4773C93.0117 12.4773 94.2333 12.625 95.4265 12.9205C96.6311 13.2159 97.6936 13.7045 98.614 14.3864C99.5458 15.0568 100.228 15.9716 100.659 17.1307C101.103 18.2898 101.177 19.7386 100.881 21.4773L97.9663 39H92.0345L92.6481 35.4034H92.4436C91.9549 36.1307 91.3186 36.8125 90.5345 37.4489C89.7504 38.0739 88.8186 38.5795 87.739 38.9659C86.6595 39.3409 85.4379 39.5284 84.0742 39.5284ZM86.4095 34.9943C87.6481 34.9943 88.7617 34.75 89.7504 34.2614C90.739 33.7614 91.5515 33.1023 92.1879 32.2841C92.8242 31.4659 93.222 30.5739 93.3811 29.608L93.8924 26.5227C93.6651 26.6818 93.3129 26.8295 92.8356 26.9659C92.3583 27.1023 91.8242 27.2216 91.2333 27.3239C90.6538 27.4261 90.0799 27.517 89.5117 27.5966C88.9436 27.6761 88.4549 27.7443 88.0458 27.8011C87.1026 27.9261 86.239 28.1307 85.4549 28.4148C84.6822 28.6989 84.0401 29.0966 83.5288 29.608C83.0288 30.108 82.7163 30.7557 82.5913 31.5511C82.4095 32.6761 82.6765 33.5341 83.3924 34.125C84.1083 34.7045 85.114 34.9943 86.4095 34.9943ZM127.092 19.7386L121.415 20.3523C121.359 19.7727 121.182 19.233 120.887 18.733C120.592 18.233 120.148 17.8352 119.557 17.5398C118.978 17.233 118.228 17.0795 117.307 17.0795C115.967 17.0795 114.79 17.3807 113.779 17.983C112.768 18.5852 112.194 19.358 112.057 20.3011C111.932 21.0057 112.103 21.5795 112.569 22.0227C113.035 22.4659 113.898 22.8409 115.16 23.1477L119.489 24.1023C121.876 24.6364 123.592 25.5 124.637 26.6932C125.694 27.8864 126.063 29.4489 125.745 31.3807C125.472 32.9943 124.768 34.4148 123.631 35.642C122.495 36.858 121.04 37.8068 119.268 38.4886C117.506 39.1705 115.552 39.5114 113.404 39.5114C110.143 39.5114 107.631 38.8352 105.87 37.483C104.12 36.1193 103.251 34.2443 103.262 31.858L109.33 31.2784C109.398 32.4602 109.813 33.3523 110.574 33.9545C111.336 34.5455 112.393 34.8466 113.745 34.858C115.268 34.8693 116.552 34.5511 117.597 33.9034C118.654 33.2443 119.251 32.4432 119.387 31.5C119.501 30.7955 119.324 30.2216 118.859 29.7784C118.404 29.3352 117.592 28.983 116.421 28.7216L112.126 27.7841C109.694 27.25 107.961 26.3466 106.927 25.0739C105.904 23.7898 105.557 22.1705 105.887 20.2159C106.16 18.625 106.824 17.2557 107.881 16.108C108.949 14.9489 110.319 14.0568 111.989 13.4318C113.66 12.7955 115.529 12.4773 117.597 12.4773C120.711 12.4773 123.057 13.1307 124.637 14.4375C126.217 15.7443 127.035 17.5114 127.092 19.7386ZM146.032 12.8182L145.231 17.5909H130.197L130.981 12.8182H146.032ZM135.72 6.54545H141.89L137.799 31.125C137.674 31.9545 137.697 32.5909 137.867 33.0341C138.049 33.4659 138.339 33.7614 138.737 33.9205C139.146 34.0795 139.606 34.1591 140.117 34.1591C140.492 34.1591 140.845 34.1307 141.174 34.0739C141.504 34.0057 141.765 33.9545 141.958 33.9205L142.231 38.7443C141.856 38.858 141.35 38.983 140.714 39.1193C140.089 39.2557 139.339 39.3352 138.464 39.358C136.896 39.392 135.532 39.1534 134.373 38.642C133.225 38.1193 132.384 37.3182 131.85 36.2386C131.328 35.1477 131.208 33.7841 131.492 32.1477L135.72 6.54545ZM157.11 39.5114C154.485 39.5114 152.315 38.9659 150.599 37.875C148.883 36.7727 147.679 35.2159 146.985 33.2045C146.304 31.1818 146.19 28.8011 146.645 26.0625C147.088 23.3693 147.991 21.0057 149.355 18.9716C150.718 16.9261 152.423 15.3352 154.468 14.1989C156.525 13.0511 158.798 12.4773 161.287 12.4773C162.9 12.4773 164.383 12.7386 165.735 13.2614C167.088 13.7727 168.23 14.5682 169.162 15.6477C170.093 16.7273 170.735 18.1023 171.088 19.7727C171.44 21.4318 171.423 23.4091 171.037 25.7045L170.747 27.5966H149.27L149.934 23.4375H165.48C165.684 22.2557 165.616 21.2045 165.275 20.2841C164.934 19.3523 164.366 18.6193 163.571 18.0852C162.775 17.5511 161.781 17.2841 160.588 17.2841C159.372 17.2841 158.235 17.5966 157.179 18.2216C156.133 18.8352 155.252 19.6307 154.537 20.608C153.821 21.5852 153.366 22.6136 153.173 23.6932L152.474 27.6818C152.224 29.3182 152.281 30.6534 152.645 31.6875C153.008 32.7216 153.645 33.483 154.554 33.9716C155.463 34.4602 156.61 34.7045 157.997 34.7045C158.906 34.7045 159.747 34.5795 160.52 34.3295C161.292 34.0795 161.98 33.7045 162.582 33.2045C163.196 32.6932 163.707 32.0682 164.116 31.3295L169.758 31.9773C169.133 33.5 168.218 34.8295 167.014 35.9659C165.809 37.0909 164.366 37.9659 162.684 38.5909C161.014 39.2045 159.156 39.5114 157.11 39.5114ZM173.128 39L177.491 12.8182H183.662L179.298 39H173.128ZM181.48 9.06818C180.491 9.06818 179.673 8.73864 179.025 8.07954C178.378 7.42045 178.094 6.63068 178.173 5.71023C178.253 4.78977 178.667 4 179.417 3.34091C180.179 2.68182 181.048 2.35227 182.025 2.35227C183.014 2.35227 183.827 2.68182 184.463 3.34091C185.111 4 185.395 4.78977 185.315 5.71023C185.247 6.63068 184.832 7.42045 184.071 8.07954C183.321 8.73864 182.457 9.06818 181.48 9.06818Z" fill="#2B7EFC"/>
<path d="M68.9135 15.2386L68.418 15.3059L68.4768 15.7386H68.9135V15.2386ZM68.2317 12.767L67.7751 12.9708L67.7763 12.9734L68.2317 12.767ZM66.9021 10.892L66.5599 11.2566L66.5639 11.2603L66.9021 10.892ZM64.8737 9.69886L65.0359 9.22589V9.22589L64.8737 9.69886ZM56.7601 10.7045L57.0047 11.1406L56.7601 10.7045ZM52.4476 14.8636L52.8656 15.138L52.8664 15.1368L52.4476 14.8636ZM50.0101 21.5114L49.5168 21.4299L49.5167 21.4305L50.0101 21.5114ZM50.0783 28.2102L49.5945 28.3364L50.0783 28.2102ZM52.7033 32.3864L52.4033 32.7864L52.4073 32.7893L52.7033 32.3864ZM62.4021 32.7784L62.1899 32.3257L62.4021 32.7784ZM66.0158 29.8807L65.6188 29.5767L65.6184 29.5772L66.0158 29.8807ZM67.8567 25.4489L67.935 24.955L67.4391 24.8764L67.3625 25.3726L67.8567 25.4489ZM69.2544 25.6705V26.1705L69.3327 25.1766L69.2544 25.6705ZM59.7601 25.6705L59.2674 25.5855L59.1665 26.1705H59.7601V25.6705ZM60.6124 20.7273V20.2273H60.1912L60.1196 20.6423L60.6124 20.7273ZM74.7771 20.7273L75.27 20.8114L75.3697 20.2273H74.7771V20.7273ZM74.0612 24.9205L73.5683 24.8363L73.5677 24.8401L74.0612 24.9205ZM70.8737 32.6932L70.4737 32.3932L70.4735 32.3935L70.8737 32.6932ZM64.7885 37.7216L65.0062 38.1717L65.007 38.1713L64.7885 37.7216ZM48.7317 37.3125L48.4543 37.7285L48.4568 37.7302L48.7317 37.3125ZM44.0953 31.125L43.6218 31.2855L43.622 31.2861L44.0953 31.125ZM43.6521 21.5795L44.1453 21.6617L44.1458 21.6592L43.6521 21.5795ZM46.0726 14.0284L45.6305 13.7949L45.6295 13.7967L46.0726 14.0284ZM50.368 8.38636L50.7051 8.75566L50.7052 8.75555L50.368 8.38636ZM56.0442 4.84091L56.225 5.30706L56.2272 5.30619L56.0442 4.84091ZM67.8396 4.46591L67.6704 4.9364L67.6734 4.93747L67.8396 4.46591ZM71.8965 6.85227L71.5581 7.22039L71.5599 7.22208L71.8965 6.85227ZM74.5044 10.5341L74.9647 10.3389V10.3389L74.5044 10.5341ZM75.3567 15.2386V15.7386H75.8468L75.8566 15.2486L75.3567 15.2386ZM68.9135 15.2386L69.409 15.1714C69.2785 14.2105 69.0396 13.3386 68.6871 12.5607L68.2317 12.767L67.7763 12.9734C68.0828 13.65 68.2985 14.4259 68.418 15.3059L68.9135 15.2386ZM68.2317 12.767L68.6883 12.5633C68.3329 11.7667 67.8509 11.0845 67.2403 10.5238L66.9021 10.892L66.5639 11.2603C67.067 11.7223 67.4714 12.2901 67.7751 12.9708L68.2317 12.767ZM66.9021 10.892L67.2444 10.5275C66.6309 9.95158 65.8915 9.51926 65.0359 9.22589L64.8737 9.69886L64.7116 10.1718C65.4468 10.4239 66.0598 10.7871 66.5599 11.2566L66.9021 10.892ZM64.8737 9.69886L65.0359 9.22589C64.1768 8.93135 63.1938 8.78977 62.0953 8.78977V9.28977V9.78977C63.1105 9.78977 63.9797 9.92092 64.7116 10.1718L64.8737 9.69886ZM62.0953 9.28977V8.78977C60.1322 8.78977 58.2698 9.28461 56.5155 10.2684L56.7601 10.7045L57.0047 11.1406C58.614 10.2381 60.3085 9.78977 62.0953 9.78977V9.28977ZM56.7601 10.7045L56.5155 10.2684C54.7544 11.2561 53.2601 12.7024 52.0288 14.5905L52.4476 14.8636L52.8664 15.1368C54.0214 13.3657 55.4021 12.0394 57.0047 11.1406L56.7601 10.7045ZM52.4476 14.8636L52.0296 14.5893C50.7907 16.4771 49.9575 18.7621 49.5168 21.4299L50.0101 21.5114L50.5034 21.5929C50.9263 19.0334 51.7181 16.8866 52.8656 15.138L52.4476 14.8636ZM50.0101 21.5114L49.5167 21.4305C49.0779 24.1094 49.0939 26.4175 49.5945 28.3364L50.0783 28.2102L50.5621 28.084C50.1081 26.3439 50.0787 24.1861 50.5035 21.5922L50.0101 21.5114ZM50.0783 28.2102L49.5945 28.3364C50.0947 30.254 51.0238 31.7518 52.4033 32.7864L52.7033 32.3864L53.0033 31.9864C51.8373 31.1119 51.0164 29.8256 50.5621 28.084L50.0783 28.2102ZM52.7033 32.3864L52.4073 32.7893C53.7946 33.8084 55.5184 34.3011 57.5442 34.3011V33.8011V33.3011C55.6836 33.3011 54.1801 32.8507 52.9993 31.9834L52.7033 32.3864ZM57.5442 33.8011V34.3011C59.3934 34.3011 61.0864 33.9474 62.6143 33.2311L62.4021 32.7784L62.1899 32.3257C60.8088 32.9731 59.2631 33.3011 57.5442 33.3011V33.8011ZM62.4021 32.7784L62.6143 33.2311C64.1401 32.5159 65.4087 31.4995 66.4132 30.1841L66.0158 29.8807L65.6184 29.5772C64.7137 30.7619 63.5732 31.6772 62.1899 32.3257L62.4021 32.7784ZM66.0158 29.8807L66.4127 30.1847C67.4336 28.8516 68.0777 27.2945 68.3508 25.5251L67.8567 25.4489L67.3625 25.3726C67.1129 26.9896 66.5298 28.3871 65.6188 29.5767L66.0158 29.8807ZM67.8567 25.4489L67.7784 25.9427L69.1761 26.1643L69.2544 25.6705L69.3327 25.1766L67.935 24.955L67.8567 25.4489ZM69.2544 25.6705V25.1705H59.7601V25.6705V26.1705H69.2544V25.6705ZM59.7601 25.6705L60.2528 25.7554L61.1051 20.8122L60.6124 20.7273L60.1196 20.6423L59.2674 25.5855L59.7601 25.6705ZM60.6124 20.7273V21.2273H74.7771V20.7273V20.2273H60.6124V20.7273ZM74.7771 20.7273L74.2843 20.6431L73.5684 24.8363L74.0612 24.9205L74.5541 25.0046L75.27 20.8114L74.7771 20.7273ZM74.0612 24.9205L73.5677 24.8401C73.0906 27.7697 72.0563 30.2831 70.4737 32.3932L70.8737 32.6932L71.2737 32.9932C72.9639 30.7397 74.0546 28.0713 74.5547 25.0008L74.0612 24.9205ZM70.8737 32.6932L70.4735 32.3935C68.8961 34.5004 66.9299 36.125 64.5699 37.2719L64.7885 37.7216L65.007 38.1713C67.5107 36.9546 69.6014 35.2269 71.274 32.9928L70.8737 32.6932ZM64.7885 37.7216L64.5708 37.2715C62.2232 38.4067 59.6449 38.9773 56.8283 38.9773V39.4773V39.9773C59.7844 39.9773 62.5129 39.3774 65.0062 38.1717L64.7885 37.7216ZM56.8283 39.4773V38.9773C53.6997 38.9773 51.1017 38.2735 49.0065 36.8948L48.7317 37.3125L48.4568 37.7302C50.748 39.2379 53.5478 39.9773 56.8283 39.9773V39.4773ZM48.7317 37.3125L49.009 36.8965C46.9259 35.5078 45.4451 33.5385 44.5686 30.9639L44.0953 31.125L43.622 31.2861C44.5637 34.0524 46.1738 36.2082 48.4543 37.7285L48.7317 37.3125ZM44.0953 31.125L44.5688 30.9645C43.6933 28.3816 43.5411 25.2872 44.1453 21.6617L43.6521 21.5795L43.1589 21.4973C42.5359 25.2355 42.6792 28.5048 43.6218 31.2855L44.0953 31.125ZM43.6521 21.5795L44.1458 21.6592C44.5929 18.8867 45.3847 16.4222 46.5156 14.2602L46.0726 14.0284L45.6295 13.7967C44.4423 16.0664 43.6204 18.636 43.1585 21.4999L43.6521 21.5795ZM46.0726 14.0284L46.5147 14.2619C47.6607 12.0923 49.0583 10.2588 50.7051 8.75566L50.368 8.38636L50.031 8.01707C48.2914 9.60484 46.8253 11.5327 45.6305 13.7949L46.0726 14.0284ZM50.368 8.38636L50.7052 8.75555C52.3657 7.23896 54.2052 6.09072 56.225 5.30705L56.0442 4.84091L55.8633 4.37476C53.7241 5.20473 51.7794 6.42013 50.0308 8.01717L50.368 8.38636ZM56.0442 4.84091L56.2272 5.30619C58.2472 4.51146 60.3668 4.11364 62.5896 4.11364V3.61364V3.11364C60.2443 3.11364 58.0003 3.53399 55.8611 4.37563L56.0442 4.84091ZM62.5896 3.61364V4.11364C64.4606 4.11364 66.1523 4.39033 67.6704 4.93639L67.8396 4.46591L68.0089 3.99542C66.3678 3.40512 64.5596 3.11364 62.5896 3.11364V3.61364ZM67.8396 4.46591L67.6734 4.93747C69.1953 5.47397 70.4875 6.23629 71.5581 7.22039L71.8965 6.85227L72.2348 6.48416C71.0554 5.40007 69.643 4.57148 68.0059 3.99435L67.8396 4.46591ZM71.8965 6.85227L71.5599 7.22208C72.6427 8.20737 73.4699 9.37499 74.0441 10.7293L74.5044 10.5341L74.9647 10.3389C74.3344 8.85228 73.423 7.56536 72.233 6.48247L71.8965 6.85227ZM74.5044 10.5341L74.0441 10.7293C74.6159 12.078 74.8896 13.5752 74.8568 15.2287L75.3567 15.2386L75.8566 15.2486C75.8919 13.4702 75.5974 11.8311 74.9647 10.3389L74.5044 10.5341ZM75.3567 15.2386V14.7386H68.9135V15.2386V15.7386H75.3567V15.2386ZM79.7447 38.642L79.5244 39.0909L79.5278 39.0925L79.7447 38.642ZM77.0345 35.983L76.5846 36.2013L76.5864 36.2048L77.0345 35.983ZM76.6083 31.6534L76.1153 31.57L76.115 31.5717L76.6083 31.6534ZM78.0401 27.9886L77.6384 27.6909L77.6362 27.694L78.0401 27.9886ZM80.6651 25.6705L80.9096 26.1066L80.9112 26.1057L80.6651 25.6705ZM84.0742 24.3409L83.9582 23.8546L83.9572 23.8548L84.0742 24.3409ZM87.8583 23.6932L87.8079 23.1957L87.8055 23.196L87.8583 23.6932ZM91.6595 23.25L91.5904 22.7548L91.5896 22.7549L91.6595 23.25ZM93.8583 22.6364L94.102 23.073L94.1096 23.0686L93.8583 22.6364ZM94.7447 21.3409L95.2371 21.4278L95.2447 21.3847V21.3409H94.7447ZM94.7447 21.2386L94.2509 21.16L94.2447 21.1991V21.2386H94.7447ZM94.1311 18.2557L93.754 18.5841L94.1311 18.2557ZM87.2788 18.1875L87.5496 18.6078V18.6078L87.2788 18.1875ZM85.0458 20.5227L84.9734 21.0175L85.3256 21.069L85.4896 20.753L85.0458 20.5227ZM79.4549 19.7045L78.9977 19.5021L78.7312 20.104L79.3825 20.1993L79.4549 19.7045ZM82.3526 15.7159L82.6809 16.0931L82.6829 16.0913L82.3526 15.7159ZM86.597 13.2955L86.7551 13.7698L86.7571 13.7691L86.597 13.2955ZM95.4265 12.9205L95.3063 13.4058L95.3074 13.4061L95.4265 12.9205ZM98.614 14.3864L98.3164 14.7882L98.322 14.7922L98.614 14.3864ZM100.659 17.1307L100.191 17.3052L100.192 17.3092L100.659 17.1307ZM100.881 21.4773L100.388 21.3935L100.388 21.3952L100.881 21.4773ZM97.9663 39V39.5H98.39L98.4595 39.082L97.9663 39ZM92.0345 39L91.5416 38.9159L91.4419 39.5H92.0345V39ZM92.6481 35.4034L93.141 35.4875L93.2406 34.9034H92.6481V35.4034ZM92.4436 35.4034V34.9034H92.1771L92.0285 35.1246L92.4436 35.4034ZM90.5345 37.4489L90.8461 37.8399L90.8495 37.8371L90.5345 37.4489ZM87.739 38.9659L87.9031 39.4382L87.9075 39.4367L87.739 38.9659ZM89.7504 34.2614L89.9719 34.7096L89.976 34.7075L89.7504 34.2614ZM92.1879 32.2841L91.7932 31.9771L92.1879 32.2841ZM93.3811 29.608L92.8878 29.5262L92.8877 29.5267L93.3811 29.608ZM93.8924 26.5227L94.3857 26.6045L94.5802 25.431L93.6057 26.1131L93.8924 26.5227ZM92.8356 26.9659L92.6982 26.4851L92.8356 26.9659ZM91.2333 27.3239L91.1481 26.8312L91.1464 26.8315L91.2333 27.3239ZM88.0458 27.8011L88.1115 28.2968L88.1146 28.2964L88.0458 27.8011ZM85.4549 28.4148L85.2846 27.9447L85.2824 27.9455L85.4549 28.4148ZM82.5913 31.5511L83.0849 31.6309L83.0852 31.6288L82.5913 31.5511ZM83.3924 34.125L83.0741 34.5106L83.0778 34.5136L83.3924 34.125ZM84.0742 39.5284V39.0284C82.4742 39.0284 81.1081 38.7435 79.9616 38.1915L79.7447 38.642L79.5278 39.0925C80.8359 39.7224 82.3561 40.0284 84.0742 40.0284V39.5284ZM79.7447 38.642L79.965 38.1932C78.8316 37.637 78.0108 36.828 77.4825 35.7611L77.0345 35.983L76.5864 36.2048C77.2172 37.4788 78.2032 38.4426 79.5244 39.0909L79.7447 38.642ZM77.0345 35.983L77.4843 35.7646C76.9743 34.714 76.8288 33.3828 77.1016 31.7351L76.6083 31.6534L76.115 31.5717C75.8197 33.3559 75.9583 34.911 76.5847 36.2013L77.0345 35.983ZM76.6083 31.6534L77.1013 31.7368C77.3416 30.317 77.7953 29.1728 78.4441 28.2833L78.0401 27.9886L77.6362 27.694C76.8759 28.7363 76.3751 30.0352 76.1153 31.57L76.6083 31.6534ZM78.0401 27.9886L78.4418 28.2864C79.1163 27.3764 79.938 26.6511 80.9096 26.1066L80.6651 25.6705L80.4207 25.2343C79.3241 25.8489 78.3958 26.6691 77.6385 27.6909L78.0401 27.9886ZM80.6651 25.6705L80.9112 26.1057C81.9142 25.5388 83.0068 25.1122 84.1913 24.827L84.0742 24.3409L83.9572 23.8548C82.6871 24.1606 81.507 24.6203 80.4191 25.2352L80.6651 25.6705ZM84.0742 24.3409L84.1902 24.8273C85.4078 24.5368 86.648 24.3245 87.9111 24.1904L87.8583 23.6932L87.8055 23.196C86.5005 23.3346 85.218 23.5541 83.9582 23.8546L84.0742 24.3409ZM87.8583 23.6932L87.9088 24.1906C89.48 24.0312 90.7543 23.8827 91.7294 23.7451L91.6595 23.25L91.5896 22.7549C90.6328 22.89 89.373 23.037 87.8079 23.1957L87.8583 23.6932ZM91.6595 23.25L91.7286 23.7452C92.7276 23.6058 93.5329 23.3906 94.102 23.073L93.8583 22.6364L93.6146 22.1998C93.2065 22.4276 92.5458 22.6215 91.5904 22.7548L91.6595 23.25ZM93.8583 22.6364L94.1096 23.0686C94.7315 22.7071 95.1104 22.1455 95.2371 21.4278L94.7447 21.3409L94.2523 21.254C94.1744 21.6954 93.9625 21.9975 93.607 22.2041L93.8583 22.6364ZM94.7447 21.3409H95.2447V21.2386H94.7447H94.2447V21.3409H94.7447ZM94.7447 21.2386L95.2385 21.3173C95.4568 19.9469 95.2529 18.7824 94.5081 17.9273L94.1311 18.2557L93.754 18.5841C94.2365 19.138 94.4417 19.9622 94.2509 21.16L94.7447 21.2386ZM94.1311 18.2557L94.5081 17.9273C93.7585 17.0666 92.5622 16.6989 91.0629 16.6989V17.1989V17.6989C92.4272 17.6989 93.2764 18.0357 93.754 18.5841L94.1311 18.2557ZM91.0629 17.1989V16.6989C89.4892 16.6989 88.1284 17.0451 87.0079 17.7672L87.2788 18.1875L87.5496 18.6078C88.4746 18.0117 89.6365 17.6989 91.0629 17.6989V17.1989ZM87.2788 18.1875L87.0079 17.7672C85.9268 18.4639 85.1155 19.3031 84.602 20.2924L85.0458 20.5227L85.4896 20.753C85.908 19.9469 86.5853 19.2293 87.5496 18.6078L87.2788 18.1875ZM85.0458 20.5227L85.1182 20.028L79.5273 19.2098L79.4549 19.7045L79.3825 20.1993L84.9734 21.0175L85.0458 20.5227ZM79.4549 19.7045L79.9121 19.907C80.5891 18.3783 81.5127 17.1099 82.6809 16.0931L82.3526 15.7159L82.0244 15.3388C80.7381 16.4583 79.7298 17.8489 78.9977 19.5021L79.4549 19.7045ZM82.3526 15.7159L82.6829 16.0913C83.8583 15.0574 85.2141 14.2835 86.7551 13.7698L86.597 13.2955L86.4389 12.8211C84.7753 13.3756 83.3015 14.2153 82.0224 15.3405L82.3526 15.7159ZM86.597 13.2955L86.7571 13.7691C88.3154 13.2424 89.9826 12.9773 91.7617 12.9773V12.4773V11.9773C89.8818 11.9773 88.1058 12.2576 86.4368 12.8218L86.597 13.2955ZM91.7617 12.4773V12.9773C92.9719 12.9773 94.1531 13.1202 95.3063 13.4058L95.4265 12.9205L95.5467 12.4351C94.3135 12.1298 93.0516 11.9773 91.7617 11.9773V12.4773ZM95.4265 12.9205L95.3074 13.4061C96.4529 13.687 97.4536 14.149 98.3164 14.7881L98.614 14.3864L98.9116 13.9846C97.9335 13.2601 96.8093 12.7448 95.5456 12.4348L95.4265 12.9205ZM98.614 14.3864L98.322 14.7922C99.167 15.4002 99.7909 16.2315 100.191 17.3052L100.659 17.1307L101.128 16.9561C100.664 15.7117 99.9246 14.7134 98.906 13.9805L98.614 14.3864ZM100.659 17.1307L100.192 17.3092C100.593 18.3568 100.675 19.7079 100.388 21.3935L100.881 21.4773L101.374 21.561C101.678 19.7694 101.612 18.2227 101.126 16.9521L100.659 17.1307ZM100.881 21.4773L100.388 21.3952L97.4731 38.918L97.9663 39L98.4595 39.082L101.374 21.5593L100.881 21.4773ZM97.9663 39V38.5H92.0345V39V39.5H97.9663V39ZM92.0345 39L92.5273 39.0841L93.141 35.4875L92.6481 35.4034L92.1552 35.3193L91.5416 38.9159L92.0345 39ZM92.6481 35.4034V34.9034H92.4436V35.4034V35.9034H92.6481V35.4034ZM92.4436 35.4034L92.0285 35.1246C91.5714 35.8049 90.9707 36.4509 90.2194 37.0606L90.5345 37.4489L90.8495 37.8371C91.6664 37.1741 92.3384 36.4565 92.8586 35.6823L92.4436 35.4034ZM90.5345 37.4489L90.2228 37.0579C89.4874 37.6441 88.6056 38.1247 87.5705 38.4952L87.739 38.9659L87.9075 39.4367C89.0315 39.0344 90.0133 38.5037 90.8461 37.8399L90.5345 37.4489ZM87.739 38.9659L87.5749 38.4936C86.5572 38.8471 85.3925 39.0284 84.0742 39.0284V39.5284V40.0284C85.4832 40.0284 86.7617 39.8347 87.9031 39.4382L87.739 38.9659ZM86.4095 34.9943V35.4943C87.7154 35.4943 88.9063 35.2363 89.9719 34.7096L89.7504 34.2614L89.5288 33.8131C88.6172 34.2637 87.5808 34.4943 86.4095 34.4943V34.9943ZM89.7504 34.2614L89.976 34.7075C91.026 34.1765 91.8977 33.4715 92.5826 32.5911L92.1879 32.2841L91.7932 31.9771C91.2053 32.733 90.452 33.3462 89.5247 33.8152L89.7504 34.2614ZM92.1879 32.2841L92.5826 32.5911C93.267 31.7111 93.701 30.7423 93.8744 29.6892L93.3811 29.608L92.8877 29.5267C92.743 30.4055 92.3815 31.2208 91.7932 31.9771L92.1879 32.2841ZM93.3811 29.608L93.8743 29.6897L94.3857 26.6045L93.8924 26.5227L93.3991 26.441L92.8878 29.5262L93.3811 29.608ZM93.8924 26.5227L93.6057 26.1131C93.4465 26.2246 93.1573 26.354 92.6982 26.4851L92.8356 26.9659L92.973 27.4467C93.4685 27.3051 93.8838 27.1391 94.1791 26.9323L93.8924 26.5227ZM92.8356 26.9659L92.6982 26.4851C92.2412 26.6157 91.7249 26.7314 91.1481 26.8312L91.2333 27.3239L91.3186 27.8165C91.9236 27.7118 92.4755 27.5888 92.973 27.4467L92.8356 26.9659ZM91.2333 27.3239L91.1464 26.8315C90.5726 26.9327 90.0046 27.0227 89.4424 27.1014L89.5117 27.5966L89.5811 28.0918C90.1553 28.0114 90.735 27.9195 91.3202 27.8163L91.2333 27.3239ZM89.5117 27.5966L89.4424 27.1014C88.8743 27.1809 88.3859 27.2491 87.977 27.3059L88.0458 27.8011L88.1146 28.2964C88.5239 28.2395 89.0128 28.1713 89.5811 28.0918L89.5117 27.5966ZM88.0458 27.8011L87.9801 27.3055C87.0062 27.4346 86.1069 27.6467 85.2846 27.9447L85.4549 28.4148L85.6252 28.8849C86.3711 28.6146 87.1991 28.4177 88.1115 28.2968L88.0458 27.8011ZM85.4549 28.4148L85.2824 27.9455C84.4511 28.2511 83.7445 28.6851 83.1752 29.2544L83.5288 29.608L83.8823 29.9615C84.3358 29.508 84.9133 29.1466 85.6274 28.8841L85.4549 28.4148ZM83.5288 29.608L83.1752 29.2544C82.5903 29.8393 82.2364 30.5886 82.0973 31.4735L82.5913 31.5511L83.0852 31.6288C83.1962 30.9227 83.4673 30.3766 83.8823 29.9615L83.5288 29.608ZM82.5913 31.5511L82.0977 31.4714C81.8951 32.725 82.1884 33.7796 83.0741 34.5106L83.3924 34.125L83.7107 33.7394C83.1646 33.2886 82.9238 32.6273 83.0849 31.6309L82.5913 31.5511ZM83.3924 34.125L83.0778 34.5136C83.9128 35.1895 85.0453 35.4943 86.4095 35.4943V34.9943V34.4943C85.1828 34.4943 84.3039 34.2195 83.707 33.7364L83.3924 34.125ZM127.092 19.7386L127.145 20.2357L127.603 20.1862L127.591 19.7259L127.092 19.7386ZM121.415 20.3523L120.918 20.4011L120.967 20.9037L121.469 20.8494L121.415 20.3523ZM120.887 18.733L120.456 18.9873V18.9873L120.887 18.733ZM119.557 17.5398L119.323 17.9818L119.334 17.987L119.557 17.5398ZM112.057 20.3011L112.55 20.3885L112.551 20.3806L112.552 20.3727L112.057 20.3011ZM115.16 23.1477L115.041 23.6337L115.052 23.636L115.16 23.1477ZM119.489 24.1023L119.598 23.6143L119.597 23.614L119.489 24.1023ZM124.637 26.6932L124.261 27.0227L124.263 27.0247L124.637 26.6932ZM125.745 31.3807L126.238 31.464L126.238 31.4619L125.745 31.3807ZM123.631 35.642L123.997 35.9835L123.998 35.9818L123.631 35.642ZM119.268 38.4886L119.088 38.022L119.087 38.0224L119.268 38.4886ZM105.87 37.483L105.563 37.8774L105.565 37.8796L105.87 37.483ZM103.262 31.858L103.214 31.3602L102.764 31.4032L102.762 31.8556L103.262 31.858ZM109.33 31.2784L109.829 31.2496L109.799 30.7313L109.283 30.7807L109.33 31.2784ZM110.574 33.9545L110.264 34.3467L110.268 34.3495L110.574 33.9545ZM113.745 34.858L113.741 35.3579L113.741 35.3579L113.745 34.858ZM117.597 33.9034L117.861 34.3284L117.862 34.3277L117.597 33.9034ZM119.387 31.5L118.893 31.4204L118.892 31.4285L119.387 31.5ZM118.859 29.7784L118.509 30.1364L118.514 30.1407L118.859 29.7784ZM116.421 28.7216L116.53 28.2336L116.528 28.2331L116.421 28.7216ZM112.126 27.7841L112.018 28.2725L112.019 28.2726L112.126 27.7841ZM106.927 25.0739L106.536 25.3854L106.539 25.3892L106.927 25.0739ZM105.887 20.2159L105.394 20.1314L105.394 20.1328L105.887 20.2159ZM107.881 16.108L107.514 15.7691L107.513 15.7693L107.881 16.108ZM111.989 13.4318L112.164 13.9001L112.167 13.8991L111.989 13.4318ZM124.637 14.4375L124.318 14.8227L124.637 14.4375ZM127.092 19.7386L127.038 19.2415L121.362 19.8552L121.415 20.3523L121.469 20.8494L127.145 20.2357L127.092 19.7386ZM121.415 20.3523L121.913 20.3035C121.849 19.6515 121.65 19.0416 121.317 18.4786L120.887 18.733L120.456 18.9873C120.715 19.4243 120.868 19.8939 120.918 20.4011L121.415 20.3523ZM120.887 18.733L121.317 18.4786C120.967 17.8848 120.446 17.425 119.781 17.0926L119.557 17.5398L119.334 17.987C119.851 18.2455 120.216 18.5812 120.456 18.9873L120.887 18.733ZM119.557 17.5398L119.791 17.0979C119.117 16.7406 118.278 16.5795 117.307 16.5795V17.0795V17.5795C118.177 17.5795 118.839 17.7253 119.323 17.9817L119.557 17.5398ZM117.307 17.0795V16.5795C115.889 16.5795 114.622 16.8989 113.523 17.5534L113.779 17.983L114.035 18.4125C114.959 17.8625 116.044 17.5795 117.307 17.5795V17.0795ZM113.779 17.983L113.523 17.5534C112.416 18.2129 111.726 19.1024 111.563 20.2296L112.057 20.3011L112.552 20.3727C112.662 19.6135 113.12 18.9576 114.035 18.4125L113.779 17.983ZM112.057 20.3011L111.565 20.2138C111.415 21.0616 111.621 21.8117 112.224 22.385L112.569 22.0227L112.913 21.6604C112.584 21.3474 112.45 20.9498 112.55 20.3885L112.057 20.3011ZM112.569 22.0227L112.224 22.385C112.791 22.924 113.765 23.3232 115.042 23.6336L115.16 23.1477L115.278 22.6619C114.031 22.3586 113.279 22.0079 112.913 21.6604L112.569 22.0227ZM115.16 23.1477L115.052 23.636L119.382 24.5905L119.489 24.1023L119.597 23.614L115.267 22.6595L115.16 23.1477ZM119.489 24.1023L119.38 24.5902C121.715 25.1129 123.314 25.942 124.261 27.0227L124.637 26.6932L125.013 26.3637C123.869 25.058 122.036 24.1598 119.598 23.6143L119.489 24.1023ZM124.637 26.6932L124.263 27.0247C125.197 28.0797 125.551 29.4788 125.252 31.2994L125.745 31.3807L126.238 31.4619C126.575 29.4189 126.19 27.693 125.011 26.3617L124.637 26.6932ZM125.745 31.3807L125.252 31.2974C124.996 32.8129 124.336 34.1448 123.264 35.3023L123.631 35.642L123.998 35.9818C125.199 34.6848 125.949 33.1758 126.238 31.464L125.745 31.3807ZM123.631 35.642L123.266 35.3006C122.188 36.4539 120.8 37.3635 119.088 38.022L119.268 38.4886L119.447 38.9553C121.28 38.2502 122.802 37.262 123.997 35.9834L123.631 35.642ZM119.268 38.4886L119.087 38.0224C117.391 38.679 115.498 39.0114 113.404 39.0114V39.5114V40.0114C115.605 40.0114 117.622 39.6619 119.448 38.9549L119.268 38.4886ZM113.404 39.5114V39.0114C110.203 39.0114 107.816 38.3466 106.174 37.0864L105.87 37.483L105.565 37.8796C107.447 39.3238 110.082 40.0114 113.404 40.0114V39.5114ZM105.87 37.483L106.177 37.0886C104.56 35.8282 103.751 34.1053 103.762 31.8603L103.262 31.858L102.762 31.8556C102.75 34.3834 103.68 36.4104 105.563 37.8774L105.87 37.483ZM103.262 31.858L103.31 32.3557L109.378 31.7761L109.33 31.2784L109.283 30.7807L103.214 31.3602L103.262 31.858ZM109.33 31.2784L108.831 31.3072C108.905 32.5976 109.367 33.6367 110.264 34.3467L110.574 33.9545L110.885 33.5624C110.259 33.0678 109.891 32.3228 109.829 31.2496L109.33 31.2784ZM110.574 33.9545L110.268 34.3495C111.145 35.03 112.322 35.346 113.741 35.3579L113.745 34.858L113.749 34.358C112.463 34.3472 111.527 34.0609 110.881 33.5596L110.574 33.9545ZM113.745 34.858L113.741 35.3579C115.336 35.3698 116.718 35.0365 117.861 34.3284L117.597 33.9034L117.334 33.4784C116.386 34.0658 115.2 34.3688 113.749 34.358L113.745 34.858ZM117.597 33.9034L117.862 34.3277C119.003 33.6162 119.718 32.7024 119.882 31.5715L119.387 31.5L118.892 31.4285C118.783 32.184 118.305 32.8724 117.333 33.4792L117.597 33.9034ZM119.387 31.5L119.881 31.5796C120.017 30.7332 119.803 29.9869 119.203 29.4161L118.859 29.7784L118.514 30.1407C118.846 30.4563 118.984 30.8578 118.893 31.4204L119.387 31.5ZM118.859 29.7784L119.208 29.4204C118.65 28.8768 117.723 28.5 116.53 28.2336L116.421 28.7216L116.312 29.2096C117.46 29.4659 118.158 29.7936 118.51 30.1364L118.859 29.7784ZM116.421 28.7216L116.528 28.2331L112.232 27.2956L112.126 27.7841L112.019 28.2726L116.314 29.2101L116.421 28.7216ZM112.126 27.7841L112.233 27.2957C109.857 26.7739 108.249 25.9082 107.315 24.7586L106.927 25.0739L106.539 25.3892C107.673 26.7849 109.531 27.7261 112.018 28.2725L112.126 27.7841ZM106.927 25.0739L107.318 24.7624C106.402 23.6122 106.069 22.1451 106.38 20.299L105.887 20.2159L105.394 20.1328C105.046 22.1958 105.406 23.9674 106.536 25.3854L106.927 25.0739ZM105.887 20.2159L106.38 20.3004C106.637 18.801 107.26 17.5209 108.249 16.4466L107.881 16.108L107.513 15.7693C106.389 16.9905 105.683 18.449 105.394 20.1314L105.887 20.2159ZM107.881 16.108L108.249 16.4468C109.257 15.3525 110.558 14.5013 112.164 13.9001L111.989 13.4318L111.814 12.9635C110.08 13.6123 108.642 14.5452 107.514 15.7691L107.881 16.108ZM111.989 13.4318L112.167 13.8991C113.773 13.2875 115.58 12.9773 117.597 12.9773V12.4773V11.9773C115.478 11.9773 113.547 12.3034 111.811 12.9646L111.989 13.4318ZM117.597 12.4773V12.9773C120.652 12.9773 122.865 13.6201 124.318 14.8227L124.637 14.4375L124.956 14.0523C123.25 12.6413 120.769 11.9773 117.597 11.9773V12.4773ZM124.637 14.4375L124.318 14.8227C125.776 16.0288 126.538 17.6545 126.592 19.7514L127.092 19.7386L127.591 19.7259C127.531 17.3682 126.657 15.4599 124.956 14.0523L124.637 14.4375ZM146.032 12.8182L146.525 12.901L146.623 12.3182H146.032V12.8182ZM145.231 17.5909V18.0909H145.654L145.724 17.6737L145.231 17.5909ZM130.197 17.5909L129.703 17.5099L129.608 18.0909H130.197V17.5909ZM130.981 12.8182V12.3182H130.556L130.488 12.7371L130.981 12.8182ZM135.72 6.54545V6.04545H135.295L135.226 6.464L135.72 6.54545ZM141.89 6.54545L142.383 6.62754L142.48 6.04545H141.89V6.54545ZM137.799 31.125L137.306 31.0429L137.305 31.0505L137.799 31.125ZM137.867 33.0341L137.401 33.2136L137.403 33.2209L137.406 33.2281L137.867 33.0341ZM138.737 33.9205L138.551 34.3847L138.555 34.3865L138.737 33.9205ZM141.174 34.0739L141.259 34.5666L141.267 34.5652L141.275 34.5635L141.174 34.0739ZM141.958 33.9205L142.457 33.8922L142.426 33.3302L141.871 33.4281L141.958 33.9205ZM142.231 38.7443L142.376 39.2228L142.752 39.1088L142.73 38.7161L142.231 38.7443ZM140.714 39.1193L140.609 38.6304L140.607 38.6308L140.714 39.1193ZM138.464 39.358L138.475 39.8578L138.477 39.8578L138.464 39.358ZM134.373 38.642L134.166 39.0971L134.171 39.0995L134.373 38.642ZM131.85 36.2386L131.399 36.4547L131.402 36.4604L131.85 36.2386ZM131.492 32.1477L131.985 32.2333L131.986 32.2292L131.492 32.1477ZM146.032 12.8182L145.539 12.7354L144.738 17.5081L145.231 17.5909L145.724 17.6737L146.525 12.901L146.032 12.8182ZM145.231 17.5909V17.0909H130.197V17.5909V18.0909H145.231V17.5909ZM130.197 17.5909L130.69 17.672L131.474 12.8992L130.981 12.8182L130.488 12.7371L129.703 17.5099L130.197 17.5909ZM130.981 12.8182V13.3182H146.032V12.8182V12.3182H130.981V12.8182ZM135.72 6.54545V7.04545H141.89V6.54545V6.04545H135.72V6.54545ZM141.89 6.54545L141.397 6.46337L137.306 31.0429L137.799 31.125L138.292 31.2071L142.383 6.62754L141.89 6.54545ZM137.799 31.125L137.305 31.0505C137.175 31.909 137.184 32.6491 137.401 33.2136L137.867 33.0341L138.334 32.8546C138.21 32.5328 138.173 32.0001 138.294 31.1995L137.799 31.125ZM137.867 33.0341L137.406 33.2281C137.635 33.7704 138.017 34.171 138.551 34.3847L138.737 33.9205L138.922 33.4562C138.661 33.3517 138.463 33.1614 138.328 32.8401L137.867 33.0341ZM138.737 33.9205L138.555 34.3865C139.031 34.5714 139.554 34.6591 140.117 34.6591V34.1591V33.6591C139.658 33.6591 139.26 33.5877 138.918 33.4545L138.737 33.9205ZM140.117 34.1591V34.6591C140.517 34.6591 140.898 34.6288 141.259 34.5666L141.174 34.0739L141.089 33.5811C140.791 33.6326 140.467 33.6591 140.117 33.6591V34.1591ZM141.174 34.0739L141.275 34.5635C141.603 34.4957 141.859 34.4457 142.045 34.4128L141.958 33.9205L141.871 33.4281C141.671 33.4634 141.404 33.5157 141.073 33.5842L141.174 34.0739ZM141.958 33.9205L141.459 33.9487L141.732 38.7725L142.231 38.7443L142.73 38.7161L142.457 33.8922L141.958 33.9205ZM142.231 38.7443L142.086 38.2658C141.73 38.3737 141.24 38.4953 140.609 38.6304L140.714 39.1193L140.819 39.6082C141.461 39.4706 141.982 39.3422 142.376 39.2228L142.231 38.7443ZM140.714 39.1193L140.607 38.6308C140.022 38.7585 139.305 38.8359 138.451 38.8581L138.464 39.358L138.477 39.8578C139.373 39.8345 140.156 39.7528 140.82 39.6078L140.714 39.1193ZM138.464 39.358L138.453 38.8581C136.941 38.8909 135.653 38.6603 134.575 38.1846L134.373 38.642L134.171 39.0995C135.411 39.6466 136.85 39.8931 138.475 39.8578L138.464 39.358ZM134.373 38.642L134.58 38.187C133.532 37.7096 132.779 36.9881 132.298 36.0169L131.85 36.2386L131.402 36.4604C131.99 37.6482 132.919 38.5291 134.166 39.0971L134.373 38.642ZM131.85 36.2386L132.301 36.0226C131.837 35.0546 131.712 33.8045 131.985 32.2333L131.492 32.1477L131 32.0622C130.704 33.7637 130.818 35.2409 131.399 36.4547L131.85 36.2386ZM131.492 32.1477L131.986 32.2292L136.213 6.62691L135.72 6.54545L135.226 6.464L130.999 32.0663L131.492 32.1477ZM150.599 37.875L150.329 38.2957L150.331 38.2969L150.599 37.875ZM146.985 33.2045L146.512 33.3643L146.513 33.3675L146.985 33.2045ZM146.645 26.0625L147.138 26.1444L147.138 26.1437L146.645 26.0625ZM149.355 18.9716L149.77 19.25L149.771 19.2489L149.355 18.9716ZM154.468 14.1989L154.711 14.6359L154.712 14.6355L154.468 14.1989ZM165.735 13.2614L165.555 13.7277L165.559 13.729L165.735 13.2614ZM169.162 15.6477L168.783 15.9744L169.162 15.6477ZM171.088 19.7727L170.598 19.8759L170.599 19.8766L171.088 19.7727ZM171.037 25.7045L170.543 25.6215L170.542 25.6289L171.037 25.7045ZM170.747 27.5966V28.0966H171.176L171.241 27.6723L170.747 27.5966ZM149.27 27.5966L148.776 27.5177L148.683 28.0966H149.27V27.5966ZM149.934 23.4375V22.9375H149.508L149.441 23.3586L149.934 23.4375ZM165.48 23.4375V23.9375H165.901L165.972 23.5228L165.48 23.4375ZM165.275 20.2841L164.806 20.4559L164.806 20.4577L165.275 20.2841ZM163.571 18.0852L163.849 17.6701H163.849L163.571 18.0852ZM157.179 18.2216L157.432 18.6528L157.433 18.652L157.179 18.2216ZM154.537 20.608L154.133 20.3125L154.537 20.608ZM153.173 23.6932L152.681 23.6051L152.68 23.6069L153.173 23.6932ZM152.474 27.6818L151.981 27.5955L151.98 27.6063L152.474 27.6818ZM152.645 31.6875L152.173 31.8534L152.645 31.6875ZM154.554 33.9716L154.317 34.412L154.554 33.9716ZM160.52 34.3295L160.673 34.8053L160.52 34.3295ZM162.582 33.2045L162.901 33.5893L162.902 33.5887L162.582 33.2045ZM164.116 31.3295L164.173 30.8328L163.841 30.7947L163.679 31.0873L164.116 31.3295ZM169.758 31.9773L170.221 32.1671L170.472 31.5559L169.815 31.4805L169.758 31.9773ZM167.014 35.9659L167.355 36.3313L167.357 36.3296L167.014 35.9659ZM162.684 38.5909L162.857 39.0602L162.858 39.0596L162.684 38.5909ZM157.11 39.5114V39.0114C154.553 39.0114 152.483 38.4801 150.867 37.4531L150.599 37.875L150.331 38.2969C152.147 39.4517 154.418 40.0114 157.11 40.0114V39.5114ZM150.599 37.875L150.869 37.4543C149.252 36.4155 148.116 34.9517 147.458 33.0416L146.985 33.2045L146.513 33.3675C147.241 35.4801 148.514 37.1299 150.329 38.2957L150.599 37.875ZM146.985 33.2045L147.459 33.0448C146.81 31.1197 146.693 28.8257 147.138 26.1444L146.645 26.0625L146.151 25.9806C145.687 28.7766 145.797 31.244 146.512 33.3643L146.985 33.2045ZM146.645 26.0625L147.138 26.1437C147.571 23.5129 148.451 21.2182 149.77 19.25L149.355 18.9716L148.939 18.6932C147.532 20.7931 146.605 23.2257 146.151 25.9813L146.645 26.0625ZM149.355 18.9716L149.771 19.2489C151.093 17.2663 152.739 15.7317 154.711 14.6359L154.468 14.1989L154.226 13.7618C152.107 14.9388 150.344 16.586 148.939 18.6942L149.355 18.9716ZM154.468 14.1989L154.712 14.6355C156.69 13.5317 158.878 12.9773 161.287 12.9773V12.4773V11.9773C158.718 11.9773 156.36 12.5706 154.225 13.7622L154.468 14.1989ZM161.287 12.4773V12.9773C162.845 12.9773 164.267 13.2296 165.555 13.7277L165.735 13.2614L165.916 12.795C164.5 12.2477 162.955 11.9773 161.287 11.9773V12.4773ZM165.735 13.2614L165.559 13.729C166.834 14.2114 167.906 14.9588 168.783 15.9744L169.162 15.6477L169.54 15.321C168.553 14.1775 167.341 13.3341 165.912 12.7937L165.735 13.2614ZM169.162 15.6477L168.783 15.9744C169.65 16.9785 170.26 18.2719 170.598 19.8759L171.088 19.7727L171.577 19.6696C171.211 17.9327 170.537 16.476 169.54 15.321L169.162 15.6477ZM171.088 19.7727L170.599 19.8766C170.934 21.4559 170.923 23.3665 170.544 25.6216L171.037 25.7045L171.53 25.7875C171.923 23.4516 171.946 21.4077 171.577 19.6689L171.088 19.7727ZM171.037 25.7045L170.542 25.6289L170.253 27.5209L170.747 27.5966L171.241 27.6723L171.531 25.7802L171.037 25.7045ZM170.747 27.5966V27.0966H149.27V27.5966V28.0966H170.747V27.5966ZM149.27 27.5966L149.763 27.6755L150.428 23.5164L149.934 23.4375L149.441 23.3586L148.776 27.5177L149.27 27.5966ZM149.934 23.4375V23.9375H165.48V23.4375V22.9375H149.934V23.4375ZM165.48 23.4375L165.972 23.5228C166.189 22.2733 166.122 21.1301 165.744 20.1104L165.275 20.2841L164.806 20.4577C165.11 21.279 165.18 22.2381 164.987 23.3522L165.48 23.4375ZM165.275 20.2841L165.745 20.1123C165.369 19.085 164.736 18.2653 163.849 17.6701L163.571 18.0852L163.292 18.5003C163.996 18.9733 164.5 19.6195 164.806 20.4559L165.275 20.2841ZM163.571 18.0852L163.849 17.6701C162.953 17.0685 161.856 16.7841 160.588 16.7841V17.2841V17.7841C161.706 17.7841 162.597 18.0338 163.292 18.5003L163.571 18.0852ZM160.588 17.2841V16.7841C159.281 16.7841 158.057 17.1211 156.924 17.7912L157.179 18.2216L157.433 18.652C158.414 18.0721 159.462 17.7841 160.588 17.7841V17.2841ZM157.179 18.2216L156.926 17.7904C155.821 18.4385 154.889 19.2801 154.133 20.3125L154.537 20.608L154.94 20.9034C155.616 19.9812 156.445 19.2319 157.432 18.6528L157.179 18.2216ZM154.537 20.608L154.133 20.3125C153.377 21.3447 152.889 22.443 152.681 23.6051L153.173 23.6932L153.665 23.7813C153.844 22.7843 154.264 21.8258 154.94 20.9034L154.537 20.608ZM153.173 23.6932L152.68 23.6069L151.982 27.5955L152.474 27.6818L152.967 27.7681L153.665 23.7795L153.173 23.6932ZM152.474 27.6818L151.98 27.6063C151.723 29.2858 151.772 30.7123 152.173 31.8534L152.645 31.6875L153.116 31.5216C152.79 30.5945 152.725 29.3506 152.968 27.7573L152.474 27.6818ZM152.645 31.6875L152.173 31.8534C152.575 32.9971 153.291 33.8605 154.317 34.412L154.554 33.9716L154.79 33.5312C153.998 33.1055 153.441 32.4461 153.116 31.5216L152.645 31.6875ZM154.554 33.9716L154.317 34.412C155.319 34.9509 156.555 35.2045 157.997 35.2045V34.7045V34.2045C156.666 34.2045 155.606 33.9696 154.79 33.5312L154.554 33.9716ZM157.997 34.7045V35.2045C158.952 35.2045 159.845 35.0731 160.673 34.8053L160.52 34.3295L160.366 33.8538C159.648 34.0859 158.86 34.2045 157.997 34.2045V34.7045ZM160.52 34.3295L160.673 34.8053C161.504 34.5365 162.248 34.1313 162.901 33.5893L162.582 33.2045L162.263 32.8198C161.711 33.2777 161.08 33.6226 160.366 33.8538L160.52 34.3295ZM162.582 33.2045L162.902 33.5887C163.566 33.0354 164.116 32.3614 164.554 31.5718L164.116 31.3295L163.679 31.0873C163.298 31.7749 162.825 32.3509 162.262 32.8204L162.582 33.2045ZM164.116 31.3295L164.059 31.8263L169.701 32.474L169.758 31.9773L169.815 31.4805L164.173 30.8328L164.116 31.3295ZM169.758 31.9773L169.296 31.7874C168.698 33.244 167.824 34.5143 166.671 35.6022L167.014 35.9659L167.357 36.3296C168.613 35.1448 169.569 33.756 170.221 32.1671L169.758 31.9773ZM167.014 35.9659L166.673 35.6005C165.52 36.6765 164.135 37.5182 162.51 38.1222L162.684 38.5909L162.858 39.0596C164.597 38.4136 166.098 37.5053 167.355 36.3313L167.014 35.9659ZM162.684 38.5909L162.512 38.1216C160.904 38.7121 159.106 39.0114 157.11 39.0114V39.5114V40.0114C159.206 40.0114 161.123 39.6969 162.857 39.0602L162.684 38.5909ZM173.128 39L172.635 38.9178L172.537 39.5H173.128V39ZM177.491 12.8182V12.3182H177.068L176.998 12.736L177.491 12.8182ZM183.662 12.8182L184.155 12.9004L184.252 12.3182H183.662V12.8182ZM179.298 39V39.5H179.722L179.791 39.0822L179.298 39ZM179.025 8.07954L179.382 7.72908L179.025 8.07954ZM178.173 5.71023L178.671 5.75328V5.75328L178.173 5.71023ZM179.417 3.34091L179.09 2.96287L179.087 2.96533L179.417 3.34091ZM184.463 3.34091L184.103 3.68822L184.106 3.69137L184.463 3.34091ZM185.315 5.71023L184.817 5.66717L184.817 5.67329L185.315 5.71023ZM184.071 8.07954L183.744 7.7015L183.741 7.70396L184.071 8.07954ZM173.128 39L173.621 39.0822L177.985 12.9004L177.491 12.8182L176.998 12.736L172.635 38.9178L173.128 39ZM177.491 12.8182V13.3182H183.662V12.8182V12.3182H177.491V12.8182ZM183.662 12.8182L183.169 12.736L178.805 38.9178L179.298 39L179.791 39.0822L184.155 12.9004L183.662 12.8182ZM179.298 39V38.5H173.128V39V39.5H179.298V39ZM181.48 9.06818V8.56818C180.615 8.56818 179.929 8.28534 179.382 7.72908L179.025 8.07954L178.669 8.43001C179.418 9.19193 180.368 9.56818 181.48 9.56818V9.06818ZM179.025 8.07954L179.382 7.72908C178.837 7.17416 178.604 6.52814 178.671 5.75328L178.173 5.71023L177.675 5.66718C177.583 6.73322 177.919 7.66675 178.669 8.43001L179.025 8.07954ZM178.173 5.71023L178.671 5.75328C178.739 4.97211 179.086 4.29806 179.748 3.71649L179.417 3.34091L179.087 2.96533C178.249 3.70194 177.767 4.60743 177.675 5.66718L178.173 5.71023ZM179.417 3.34091L179.745 3.71894C180.418 3.1359 181.172 2.85227 182.025 2.85227V2.35227V1.85227C180.924 1.85227 179.939 2.22774 179.09 2.96288L179.417 3.34091ZM182.025 2.35227V2.85227C182.89 2.85227 183.569 3.13496 184.103 3.68821L184.463 3.34091L184.823 2.99361C184.084 2.22868 183.138 1.85227 182.025 1.85227V2.35227ZM184.463 3.34091L184.106 3.69137C184.652 4.24629 184.884 4.89231 184.817 5.66718L185.315 5.71023L185.813 5.75328C185.905 4.68723 185.57 3.7537 184.82 2.99044L184.463 3.34091ZM185.315 5.71023L184.817 5.67329C184.759 6.4492 184.415 7.12031 183.744 7.70151L184.071 8.07954L184.398 8.45757C185.249 7.7206 185.735 6.81216 185.814 5.74716L185.315 5.71023ZM184.071 8.07954L183.741 7.70396C183.08 8.28477 182.333 8.56818 181.48 8.56818V9.06818V9.56818C182.582 9.56818 183.562 9.1925 184.401 8.45513L184.071 8.07954Z" fill="url(#paint0_linear_18_131)" mask="url(#path-4-outside-1_18_131)"/>
<defs>
<filter id="filter0_d_18_131" x="35" y="0" width="40.0781" height="43.8633" filterUnits="userSpaceOnUse" color-interpolation-filters="sRGB">
<feFlood flood-opacity="0" result="BackgroundImageFix"/>
<feColorMatrix in="SourceAlpha" type="matrix" values="0 0 0 0 0 0 0 0 0 0 0 0 0 0 0 0 0 0 127 0" result="hardAlpha"/>
<feOffset dx="-4"/>
<feGaussianBlur stdDeviation="2"/>
<feComposite in2="hardAlpha" operator="out"/>
<feColorMatrix type="matrix" values="0 0 0 0 0 0 0 0 0 0 0 0 0 0 0 0 0 0 0.25 0"/>
<feBlend mode="normal" in2="BackgroundImageFix" result="effect1_dropShadow_18_131"/>
<feBlend mode="normal" in="SourceGraphic" in2="effect1_dropShadow_18_131" result="shape"/>
</filter>
<linearGradient id="paint0_linear_18_131" x1="46" y1="3" x2="105" y2="43" gradientUnits="userSpaceOnUse">
<stop stop-color="#74ABFF"/>
<stop offset="1" stop-color="#2B7EFC"/>
</linearGradient>
</defs>
</svg>
