<svg width="24" height="24" viewBox="0 0 24 24" fill="none" xmlns="http://www.w3.org/2000/svg">
<path d="M20.0392 8.64375C19.9173 8.7375 17.7563 9.95625 17.7563 12.6609C17.7563 15.7922 20.5032 16.8984 20.5876 16.9266C20.5735 16.9922 20.1517 18.4453 19.1392 19.9219C18.2345 21.2203 17.2923 22.5187 15.8579 22.5187C14.4235 22.5187 14.0532 21.6844 12.3985 21.6844C10.786 21.6844 10.2095 22.5469 8.89697 22.5469C7.58447 22.5469 6.67041 21.3422 5.61572 19.8656C4.39697 18.1312 3.4126 15.4359 3.4126 12.8812C3.4126 8.77969 6.07978 6.60469 8.70478 6.60469C10.097 6.60469 11.2595 7.51875 12.136 7.51875C12.9704 7.51875 14.2688 6.54844 15.8532 6.54844C16.4579 6.55312 18.6188 6.60469 20.0392 8.64375ZM15.1032 4.81406C15.7595 4.03594 16.2235 2.95781 16.2235 1.875C16.2235 1.725 16.2095 1.575 16.1813 1.45312C15.1126 1.49531 13.8423 2.16562 13.0782 3.05156C12.4782 3.73594 11.9157 4.81406 11.9157 5.91094C11.9157 6.075 11.9438 6.23906 11.9579 6.29062C12.0235 6.30469 12.136 6.31875 12.2438 6.31875C13.2001 6.31875 14.4048 5.67656 15.1032 4.81406Z" fill="white"/>
</svg>
