<svg width="24" height="24" viewBox="0 0 24 24" fill="none" xmlns="http://www.w3.org/2000/svg">
<path d="M22.322 12.2391C22.322 11.5453 22.261 10.8844 22.1532 10.2422H12.2251V14.2078H17.911C17.6579 15.5109 16.9079 16.6078 15.8017 17.3531V19.9875H19.1954C21.1782 18.15 22.322 15.4453 22.322 12.2391Z" fill="#4285F4"/>
<path d="M12.225 22.5469C15.075 22.5469 17.4563 21.6 19.1953 19.9875L15.8016 17.3531C14.8547 17.9859 13.65 18.375 12.225 18.375C9.47344 18.375 7.14375 16.5188 6.30938 14.0156H2.8125V16.7297C4.54219 20.175 8.1 22.5469 12.225 22.5469Z" fill="#34A853"/>
<path d="M6.30947 14.0113C6.08916 13.3785 5.97666 12.7035 5.97666 12.0004C5.97666 11.2973 6.09853 10.6223 6.30947 9.98945V7.27539H2.8126C2.09072 8.6957 1.67822 10.2941 1.67822 12.0004C1.67822 13.7066 2.09072 15.3051 2.8126 16.7301L6.30947 14.0113Z" fill="#FBBC05"/>
<path d="M12.225 5.62969C13.7812 5.62969 15.1688 6.16406 16.2656 7.21406L19.2703 4.20938C17.4516 2.49844 15.0703 1.45312 12.225 1.45312C8.1 1.45312 4.54219 3.825 2.8125 7.27031L6.30938 9.98438C7.14375 7.48125 9.47344 5.62969 12.225 5.62969Z" fill="#EA4335"/>
</svg>
