<svg width="73" height="73" viewBox="0 0 73 73" fill="none" xmlns="http://www.w3.org/2000/svg">
<rect width="73" height="73" rx="10" fill="#2D80FF"/>
<path d="M35.0582 55.8182V17.6364H37.5043V55.8182H35.0582ZM42.1129 29.8516C41.9737 28.549 41.3871 27.5348 40.353 26.8089C39.3288 26.0831 37.9964 25.7202 36.3558 25.7202C35.2024 25.7202 34.2131 25.8942 33.3878 26.2422C32.5625 26.5902 31.9311 27.0625 31.4936 27.6591C31.0561 28.2557 30.8324 28.9368 30.8224 29.7024C30.8224 30.3388 30.9666 30.8906 31.255 31.358C31.5533 31.8253 31.956 32.223 32.4631 32.5511C32.9702 32.8693 33.532 33.1378 34.1484 33.3565C34.7649 33.5753 35.3864 33.7592 36.0128 33.9084L38.8764 34.6243C40.0298 34.8928 41.1385 35.2557 42.2024 35.7131C43.2763 36.1705 44.2358 36.7472 45.081 37.4432C45.9361 38.1392 46.6122 38.9794 47.1094 39.9638C47.6065 40.9482 47.8551 42.1016 47.8551 43.424C47.8551 45.2138 47.3977 46.7898 46.483 48.152C45.5682 49.5043 44.2457 50.5632 42.5156 51.3288C40.7955 52.0845 38.7124 52.4624 36.2663 52.4624C33.8899 52.4624 31.8267 52.0945 30.0767 51.3587C28.3366 50.6229 26.9744 49.549 25.9901 48.1371C25.0156 46.7251 24.4886 45.005 24.4091 42.9766H29.853C29.9325 44.0405 30.2607 44.9254 30.8374 45.6314C31.4141 46.3374 32.1648 46.8643 33.0895 47.2124C34.0241 47.5604 35.0682 47.7344 36.2216 47.7344C37.4247 47.7344 38.4787 47.5554 39.3835 47.1974C40.2983 46.8295 41.0142 46.3224 41.5312 45.6761C42.0483 45.0199 42.3118 44.2543 42.3217 43.3793C42.3118 42.5838 42.0781 41.9276 41.6207 41.4105C41.1634 40.8835 40.522 40.446 39.6967 40.098C38.8814 39.7401 37.9268 39.4219 36.8331 39.1435L33.358 38.2486C30.8423 37.6023 28.8537 36.6229 27.392 35.3104C25.9403 33.9879 25.2145 32.233 25.2145 30.0455C25.2145 28.2457 25.7017 26.6697 26.6761 25.3175C27.6605 23.9652 28.9979 22.9162 30.6882 22.1705C32.3786 21.4148 34.2926 21.0369 36.4304 21.0369C38.598 21.0369 40.4972 21.4148 42.1278 22.1705C43.7685 22.9162 45.0561 23.9553 45.9908 25.2876C46.9254 26.6101 47.4077 28.1314 47.4375 29.8516H42.1129Z" fill="white"/>
</svg>
